<?xml version="1.0" encoding="utf-8"?>
<!-- Generator: Adobe Illustrator 15.0.0, SVG Export Plug-In . SVG Version: 6.00 Build 0)  -->
<!DOCTYPE svg PUBLIC "-//W3C//DTD SVG 1.1//EN" "http://www.w3.org/Graphics/SVG/1.1/DTD/svg11.dtd">
<svg version="1.1" id="Layer_1" xmlns="http://www.w3.org/2000/svg" xmlns:xlink="http://www.w3.org/1999/xlink" x="0px" y="0px"
	 width="354.5px" height="15px" viewBox="0 0 354.5 15" enable-background="new 0 0 354.5 15" xml:space="preserve">
<g>
	<path fill="#005DDD" d="M153.061,7.5c0,1.7-1.299,3-3,3c-1.699,0-3-1.3-3-3s1.301-3,3-3C151.763,4.5,153.061,5.8,153.061,7.5"/>
	<path fill="#FF0081" d="M160.461,7.5c0,1.7-1.299,3-3,3c-1.698,0-3-1.3-3-3s1.302-3,3-3C159.162,4.5,160.461,5.8,160.461,7.5"/>
</g>
<path fill="#00ADEF" d="M125.196,4.114c-0.9,4.801-5.5,8.801-6.9,9.601c-1.399,0.899-2.6-0.4-3.1-1.4
	c-0.5-1.1-2.101-7.001-2.5-7.501c-0.5-0.5-1.801,0.5-1.801,0.5l-0.6-0.8c0,0,2.5-3,4.5-3.4c2-0.4,2,3.1,2.5,5.1
	c0.5,1.901,0.8,3.001,1.3,3.001c0.399,0,1.3-1,2.101-2.801c0.899-1.6,0-3.1-1.801-2C119.596,0.414,126.097-0.586,125.196,4.114"/>
<path fill="#CC181E" d="M89.43,4.1c-0.199-1.4-1.5-2.6-2.799-2.8c0,0-1.301-0.3-5.001-0.3s-5,0.3-5,0.3c-1.399,0.2-2.6,1.4-2.8,2.8
	c0,0-0.3,1.2-0.3,3.4s0.3,3.4,0.3,3.4c0.2,1.398,1.5,2.6,2.8,2.8c0,0,2,0.3,5,0.3c3.001,0,5.001-0.3,5.001-0.3
	c1.399-0.2,2.6-1.4,2.799-2.8c0,0,0.301-1.4,0.301-3.4S89.43,4.1,89.43,4.1 M84.43,7.9l-4.1,2.5c-0.4,0.199-0.7,0.1-0.7-0.4V5
	c0-0.5,0.3-0.6,0.7-0.4l4.1,2.5C84.832,7.3,84.832,7.7,84.43,7.9"/>
<path fill="#365899" d="M4.6,3.3c0-0.6,0.4-0.7,0.7-0.7H7V0H4.6C2.1,0,1.5,1.9,1.5,3.1v1.7H0v2.6h1.5V15h3.1V7.5h2.1L7,4.9H4.6V3.3z
	"/>
<path fill="#1DA1F2" d="M52.264,1.25c-0.601,0.4-1.3,0.7-2,0.8c-0.601-0.6-1.5-1-2.4-1c-1.8,0-3.3,1.5-3.3,3.3
	c0,0.3,0,0.5,0.101,0.7c-2.7-0.1-5.101-1.4-6.8-3.4c-0.3,0.5-0.4,1-0.4,1.6c0,1.1,0.6,2.1,1.5,2.7c-0.5,0-1-0.2-1.5-0.4l0,0
	c0,1.6,1.1,2.9,2.6,3.2c-0.3,0.1-0.6,0.1-0.9,0.1c-0.2,0-0.4,0-0.6-0.1c0.4,1.3,1.6,2.3,3.1,2.3c-1.1,0.9-2.5,1.4-4.1,1.4
	c-0.3,0-0.5,0-0.8,0c1.5,0.899,3.2,1.5,5,1.5c6,0,9.3-5,9.3-9.3c0-0.1,0-0.3,0-0.4c0.6-0.5,1.2-1,1.6-1.7
	c-0.6,0.3-1.199,0.4-1.899,0.5C51.563,2.65,52.063,2.05,52.264,1.25"/>
<path fill="#36465D" d="M189.188,0v3.469h3.468v2.678h-3.468v3.846c0,0.871-0.012,1.373,0.081,1.619
	c0.091,0.246,0.321,0.5,0.571,0.646c0.332,0.199,0.711,0.299,1.139,0.299c0.759,0,1.516-0.246,2.266-0.738v2.363
	c-0.64,0.303-1.221,0.516-1.74,0.637c-0.521,0.121-1.082,0.182-1.686,0.182c-0.688,0-1.091-0.086-1.617-0.258
	c-0.527-0.176-0.977-0.422-1.349-0.74c-0.373-0.32-0.63-0.662-0.774-1.023c-0.144-0.361-0.215-0.885-0.215-1.57V6.146h-2.037V4.021
	c0.588-0.19,1.271-0.465,1.69-0.821c0.421-0.358,0.758-0.787,1.012-1.288c0.255-0.5,0.431-1.139,0.526-1.912H189.188z"/>
<g>
	<path d="M264.856,1.352c2.004,0,2.24,0.007,3.031,0.043c0.73,0.034,1.127,0.156,1.393,0.258c0.352,0.136,0.6,0.299,0.861,0.561
		c0.264,0.263,0.426,0.512,0.562,0.862c0.104,0.264,0.225,0.662,0.258,1.393c0.035,0.791,0.045,1.028,0.045,3.031
		s-0.01,2.24-0.045,3.029c-0.033,0.731-0.154,1.13-0.258,1.394c-0.137,0.351-0.299,0.601-0.562,0.863
		c-0.264,0.262-0.512,0.425-0.861,0.562c-0.266,0.103-0.662,0.225-1.393,0.258c-0.791,0.035-1.027,0.043-3.031,0.043
		c-2.002,0-2.24-0.008-3.031-0.043c-0.729-0.033-1.127-0.155-1.393-0.258c-0.35-0.137-0.6-0.3-0.861-0.562
		c-0.264-0.263-0.426-0.513-0.561-0.863c-0.104-0.264-0.227-0.661-0.26-1.394c-0.035-0.789-0.043-1.026-0.043-3.029
		c0-2.002,0.008-2.24,0.043-3.031c0.033-0.731,0.156-1.128,0.26-1.393c0.135-0.35,0.297-0.6,0.561-0.862
		c0.262-0.262,0.512-0.425,0.861-0.561c0.266-0.103,0.662-0.225,1.393-0.258C262.616,1.359,262.854,1.352,264.856,1.352 M264.856,0
		c-2.037,0-2.293,0.009-3.092,0.045c-0.799,0.037-1.344,0.164-1.82,0.349c-0.494,0.191-0.912,0.448-1.328,0.865
		c-0.418,0.417-0.674,0.835-0.865,1.329c-0.186,0.477-0.312,1.022-0.35,1.82c-0.037,0.8-0.045,1.056-0.045,3.092
		c0,2.037,0.008,2.292,0.045,3.092c0.037,0.799,0.164,1.344,0.35,1.821c0.191,0.493,0.447,0.911,0.865,1.328
		c0.416,0.417,0.834,0.673,1.328,0.864c0.477,0.187,1.021,0.312,1.82,0.35c0.799,0.036,1.055,0.045,3.092,0.045
		s2.293-0.009,3.092-0.045c0.799-0.037,1.344-0.163,1.82-0.35c0.494-0.191,0.912-0.447,1.33-0.864
		c0.416-0.417,0.672-0.835,0.865-1.328c0.184-0.478,0.311-1.022,0.348-1.821c0.037-0.8,0.045-1.055,0.045-3.092
		s-0.008-2.292-0.045-3.092c-0.037-0.798-0.164-1.343-0.348-1.82c-0.193-0.493-0.449-0.912-0.865-1.329
		c-0.418-0.417-0.836-0.673-1.33-0.865c-0.477-0.186-1.021-0.312-1.82-0.349C267.149,0.009,266.894,0,264.856,0L264.856,0z"/>
	<path d="M264.856,3.648c-2.127,0-3.852,1.725-3.852,3.852s1.725,3.852,3.852,3.852s3.852-1.725,3.852-3.852
		S266.983,3.648,264.856,3.648z M264.856,10c-1.381,0-2.5-1.119-2.5-2.5s1.119-2.5,2.5-2.5s2.5,1.119,2.5,2.5S266.237,10,264.856,10
		z"/>
	<circle cx="268.86" cy="3.497" r="0.9"/>
</g>
<path fill="#F8A021" d="M220.595,7.972c1.865,0,3.619,0.729,4.938,2.055c1.32,1.324,2.047,3.091,2.047,4.97h2.875
	c0-5.459-4.423-9.899-9.859-9.899V7.972L220.595,7.972z M220.599,2.875c6.648,0,12.06,5.439,12.06,12.125h2.875
	c0-8.271-6.7-15-14.935-15V2.875z M224.574,12.991c0,1.1-0.894,1.991-1.991,1.991c-1.1,0-1.992-0.893-1.992-1.991
	S221.483,11,222.583,11C223.681,11,224.574,11.893,224.574,12.991z"/>
<g>
	<path fill="#231F20" d="M303.984,6.812c0,0,1.942-0.145,1.942-2.423S304.337,1,302.324,1h-3.706h-0.108h-2.81v12.73h2.81h0.108
		h3.706c0,0,4.043,0.128,4.043-3.758C306.367,9.973,306.544,6.812,303.984,6.812z M298.618,3.263h3.229h0.477c0,0,0.9,0,0.9,1.324
		c0,1.325-0.529,1.517-1.13,1.517h-3.477V3.263z M302.137,11.469c-0.099,0.001-0.182,0-0.236,0h-3.282V8.066h3.706
		c0,0,1.342-0.018,1.342,1.747C303.666,11.304,302.664,11.457,302.137,11.469z"/>
	<path fill="#231F20" d="M311.762,4.239c-4.896,0-4.892,4.891-4.892,4.891s-0.336,4.866,4.892,4.866c0,0,4.355,0.249,4.355-3.385
		h-2.24c0,0,0.074,1.369-2.041,1.369c0,0-2.24,0.149-2.24-2.216h6.596C316.191,9.765,316.914,4.239,311.762,4.239z M309.571,8.066
		c0,0,0.273-1.963,2.24-1.963c1.966,0,1.94,1.963,1.94,1.963H309.571z"/>
	<rect x="309.022" y="1.75" fill="#231F20" width="5.252" height="1.568"/>
</g>
<g>
	<path fill="#EA4335" d="M338.961,6.57c-0.003,0.738,0,1.477,0.004,2.217c1.237,0.039,2.479,0.02,3.717,0.039
		c-0.546,2.746-4.282,3.637-6.26,1.842c-2.031-1.572-1.937-5.023,0.177-6.485c1.479-1.179,3.578-0.888,5.057,0.133
		c0.579-0.537,1.122-1.111,1.646-1.707c-1.228-0.98-2.735-1.678-4.341-1.604c-3.349-0.111-6.427,2.821-6.482,6.169
		c-0.215,2.738,1.586,5.422,4.127,6.39c2.532,0.976,5.778,0.31,7.396-1.965c1.067-1.436,1.297-3.285,1.173-5.023
		C343.101,6.56,341.031,6.563,338.961,6.57z"/>
	<path fill="#EA4335" d="M351.069,6.56c-0.006-0.617-0.01-1.238-0.012-1.855c-0.618,0-1.232,0-1.847,0
		c-0.006,0.617-0.013,1.235-0.017,1.855c-0.62,0.003-1.237,0.006-1.854,0.013c0,0.618,0,1.232,0,1.847
		c0.617,0.006,1.238,0.012,1.854,0.018c0.007,0.618,0.007,1.236,0.014,1.854c0.617,0,1.231,0,1.85,0
		c0.002-0.617,0.006-1.235,0.012-1.857c0.621-0.004,1.238-0.008,1.855-0.014c0-0.615,0-1.233,0-1.847
		C352.308,6.566,351.688,6.566,351.069,6.56z"/>
</g>
</svg>
