<?xml version="1.0" encoding="utf-8"?>
<!-- Generator: Adobe Illustrator 26.5.0, SVG Export Plug-In . SVG Version: 6.00 Build 0)  -->
<svg version="1.1" id="Layer_1" xmlns="http://www.w3.org/2000/svg" xmlns:xlink="http://www.w3.org/1999/xlink" x="0px" y="0px"
	 viewBox="0 0 50 50" style="enable-background:new 0 0 50 50;" xml:space="preserve">
<style type="text/css">
	.st0{fill:#FFFFFF;}
	.st1{fill:#FF0000;}
</style>
<path class="st0" d="M25,12.1c-7.1,0-12.9,5.8-12.9,12.9S17.9,37.9,25,37.9S37.9,32.1,37.9,25S32.1,12.1,25,12.1"/>
<path class="st1" d="M25,0C11.2,0,0,11.2,0,25s11.2,25,25,25s25-11.2,25-25S38.8,0,25,0 M34,26.4l-12.9,7.9
	c-1.2,0.7-2.2,0.1-2.2-1.2V17.1c0-1.5,1-2.1,2.2-1.2L34,23.6C35.2,24.4,35.2,25.5,34,26.4"/>
</svg>
