<?xml version="1.0" encoding="utf-8"?>
<!-- Generator: Adobe Illustrator 24.3.2, SVG Export Plug-In . SVG Version: 6.00 Build 0)  -->
<svg version="1.1" id="Layer_1" xmlns="http://www.w3.org/2000/svg" xmlns:xlink="http://www.w3.org/1999/xlink" x="0px" y="0px"
	 viewBox="0 0 92.1 50" style="enable-background:new 0 0 92.1 50;" xml:space="preserve">
<style type="text/css">
	.st0{fill:#FF6917;}
	.st1{fill-rule:evenodd;clip-rule:evenodd;fill:#FF6917;}
</style>
<g>
	<path class="st0" d="M61,20.1c0,0.8-0.2,1.5-0.7,1.9s-1.1,0.6-2,0.6h-3v-8.4h3.1c0.3,0,0.6,0,0.9,0.1c0.3,0.1,0.5,0.2,0.7,0.4
		s0.4,0.4,0.5,0.7s0.2,0.6,0.2,0.9c0,0.5-0.1,0.8-0.3,1.1c-0.2,0.3-0.5,0.5-0.9,0.6c0.2,0,0.4,0.1,0.6,0.2c0.2,0.1,0.4,0.2,0.5,0.4
		c0.2,0.2,0.3,0.4,0.4,0.6C60.9,19.5,61,19.8,61,20.1 M59.7,16.4c0-0.4-0.1-0.7-0.3-0.9s-0.6-0.4-1-0.4h-2.1v2.6h2
		c0.5,0,0.9-0.1,1.1-0.4C59.6,17,59.7,16.7,59.7,16.4 M60.1,20.2c0-0.5-0.2-0.9-0.5-1.2c-0.3-0.3-0.8-0.4-1.3-0.4h-2.1v3.2h2.1
		c0.6,0,1.1-0.1,1.3-0.4C59.9,21.1,60.1,20.7,60.1,20.2 M67.7,19.4c0,0.5-0.1,1-0.2,1.4s-0.3,0.8-0.6,1c-0.2,0.3-0.5,0.5-0.9,0.6
		c-0.3,0.1-0.7,0.2-1.1,0.2s-0.7-0.1-1.1-0.2c-0.3-0.1-0.6-0.3-0.9-0.6c-0.2-0.3-0.4-0.6-0.6-1c-0.1-0.4-0.2-0.9-0.2-1.4
		s0.1-1,0.2-1.4c0.1-0.4,0.3-0.8,0.6-1c0.2-0.3,0.5-0.5,0.9-0.6c0.3-0.1,0.7-0.2,1.1-0.2s0.7,0.1,1.1,0.2c0.3,0.1,0.6,0.3,0.9,0.6
		c0.2,0.3,0.4,0.6,0.6,1C67.6,18.4,67.7,18.9,67.7,19.4 M66.8,19.5c0-0.8-0.2-1.5-0.5-1.9S65.5,17,65,17c-0.6,0-1,0.2-1.3,0.6
		s-0.5,1-0.5,1.9c0,0.8,0.2,1.5,0.5,1.9S64.4,22,65,22s1-0.2,1.3-0.6C66.6,20.9,66.8,20.3,66.8,19.5 M74.1,22.1
		c0,0.5-0.1,0.9-0.2,1.2c-0.1,0.4-0.3,0.6-0.5,0.9c-0.3,0.2-0.6,0.4-1,0.5s-0.9,0.2-1.5,0.2l-0.3-0.7c0.5,0,1-0.1,1.3-0.1
		c0.3-0.1,0.6-0.2,0.8-0.4c0.2-0.2,0.3-0.4,0.4-0.6c0.1-0.3,0.1-0.6,0.1-0.9v-0.3c-0.2,0.2-0.5,0.5-0.8,0.6
		c-0.3,0.2-0.7,0.3-1.1,0.3c-0.3,0-0.6-0.1-0.9-0.2s-0.5-0.3-0.7-0.6c-0.2-0.3-0.4-0.6-0.5-1S69,20.1,69,19.6c0-0.6,0.1-1,0.2-1.5
		c0.1-0.4,0.3-0.8,0.5-1.1c0.2-0.3,0.5-0.5,0.8-0.6s0.6-0.2,0.9-0.2c0.4,0,0.7,0.1,1,0.2c0.3,0.2,0.5,0.4,0.8,0.6v-0.7h0.9
		L74.1,22.1L74.1,22.1z M73.2,17.9c-0.2-0.3-0.4-0.5-0.7-0.7c-0.3-0.2-0.6-0.3-1-0.3c-0.5,0-0.9,0.2-1.2,0.7
		c-0.3,0.4-0.4,1.1-0.4,1.9s0.1,1.4,0.4,1.8s0.7,0.6,1.2,0.6c0.3,0,0.6-0.1,0.9-0.2c0.3-0.2,0.5-0.4,0.8-0.7
		C73.2,21,73.2,17.9,73.2,17.9z M81.2,19.4c0,0.5-0.1,1-0.2,1.4s-0.3,0.8-0.6,1c-0.2,0.3-0.5,0.5-0.9,0.6c-0.3,0.1-0.7,0.2-1.1,0.2
		s-0.7-0.1-1.1-0.2c-0.3-0.1-0.6-0.3-0.9-0.6c-0.2-0.3-0.4-0.6-0.6-1c-0.1-0.4-0.2-0.9-0.2-1.4s0.1-1,0.2-1.4s0.3-0.8,0.6-1
		c0.2-0.3,0.5-0.5,0.9-0.6c0.3-0.1,0.7-0.2,1.1-0.2s0.7,0.1,1.1,0.2c0.3,0.1,0.6,0.3,0.9,0.6c0.2,0.3,0.4,0.6,0.6,1
		C81.1,18.4,81.2,18.9,81.2,19.4 M80.3,19.5c0-0.8-0.2-1.5-0.5-1.9C79.4,17.2,79,17,78.4,17s-1,0.2-1.3,0.6s-0.5,1-0.5,1.9
		c0,0.8,0.2,1.5,0.5,1.9s0.8,0.6,1.3,0.6c0.6,0,1-0.2,1.3-0.6C80.1,20.9,80.3,20.3,80.3,19.5 M83.9,17.1v4.1c0,0.3,0,0.5,0.1,0.6
		s0.3,0.2,0.5,0.2s0.3,0,0.5,0c0.1,0,0.3-0.1,0.4-0.1l-0.1,0.8c-0.2,0.1-0.4,0.1-0.5,0.2c-0.2,0-0.4,0.1-0.6,0.1
		c-0.4,0-0.7-0.1-0.9-0.3c-0.2-0.2-0.3-0.6-0.3-1.1v-4.2h-0.8v-0.8H83V14l0.9-0.5v3.1h1.6v0.8h-1.6V17.1z M90.8,22.6v-0.8
		c-0.2,0.2-0.5,0.5-0.8,0.6c-0.3,0.2-0.7,0.3-1.2,0.3c-0.3,0-0.5,0-0.7-0.1s-0.5-0.2-0.6-0.3c-0.2-0.2-0.3-0.4-0.5-0.6
		c-0.1-0.3-0.2-0.6-0.2-1s0.1-0.7,0.2-0.9c0.1-0.3,0.3-0.5,0.5-0.6c0.2-0.2,0.5-0.3,0.8-0.4s0.6-0.1,0.9-0.1s0.6,0,0.9,0.1
		s0.5,0.2,0.7,0.3v-0.7c0-0.9-0.5-1.4-1.4-1.4c-0.3,0-0.6,0-0.9,0.1s-0.5,0.2-0.8,0.4l-0.3-0.7c0.3-0.2,0.6-0.3,1-0.4
		s0.7-0.1,1.2-0.1c0.7,0,1.2,0.2,1.6,0.5s0.6,0.8,0.6,1.6v4.4h-1V22.6z M90.8,19.8c-0.2-0.1-0.4-0.2-0.7-0.3
		c-0.2-0.1-0.6-0.1-0.9-0.1c-0.5,0-0.8,0.1-1.1,0.3c-0.3,0.2-0.4,0.5-0.4,0.9c0,0.5,0.1,0.8,0.4,1c0.2,0.2,0.5,0.3,0.9,0.3
		s0.8-0.1,1.1-0.3c0.3-0.2,0.6-0.4,0.7-0.7V19.8z M89.7,15.5H89l1.2-1.9h1.3L89.7,15.5z"/>
	<path class="st0" d="M60.4,36.1v-4.5v-0.7c0,0.1,0,0.1-0.1,0.2c0,0.1-0.1,0.2-0.1,0.3c0,0.1-0.1,0.2-0.1,0.3c0,0.1-0.1,0.2-0.1,0.3
		l-1.8,4.3L56.4,32c0-0.1-0.1-0.2-0.1-0.3c0-0.1-0.1-0.2-0.1-0.3c0-0.1-0.1-0.2-0.1-0.3c0-0.1-0.1-0.2-0.1-0.2v0.7v4.5h-0.7v-6.7
		h0.8l1.6,4c0,0.1,0.1,0.2,0.1,0.3c0.1,0.1,0.1,0.2,0.1,0.4c0,0.1,0.1,0.2,0.1,0.3s0.1,0.2,0.1,0.3c0-0.1,0-0.2,0.1-0.3
		c0-0.1,0.1-0.2,0.1-0.3s0.1-0.2,0.1-0.4c0-0.1,0.1-0.2,0.1-0.3l1.6-4h0.8v6.7H60.4z M67.2,36.1l-0.6-1.7h-2.8l-0.6,1.7h-0.8
		l2.3-6.7h0.8l2.3,6.7H67.2z M65.7,31.5c0-0.1-0.1-0.2-0.1-0.4c0-0.1-0.1-0.3-0.1-0.4s-0.1-0.2-0.1-0.3c0-0.1-0.1-0.2-0.1-0.3
		c0,0.1,0,0.2-0.1,0.3c0,0.1-0.1,0.2-0.1,0.3c0,0.1-0.1,0.2-0.1,0.4c0,0.1-0.1,0.3-0.1,0.4l-0.7,2.2h2.3L65.7,31.5z M74.2,31.3
		c0,0.5-0.1,0.9-0.4,1.3c-0.3,0.3-0.7,0.5-1.2,0.6l1.5,2.9h-0.9l-1.4-2.9h-1.6v2.9h-0.7v-6.7h2.7c0.3,0,0.6,0,0.8,0.1
		c0.3,0.1,0.5,0.2,0.7,0.3c0.2,0.2,0.3,0.4,0.4,0.6C74.1,30.7,74.2,31,74.2,31.3 M73.4,31.3c0-0.4-0.1-0.7-0.4-0.9
		c-0.2-0.2-0.6-0.3-1-0.3h-1.9v2.5H72c0.5,0,0.9-0.1,1.1-0.3C73.3,32,73.4,31.7,73.4,31.3 M79.7,36.1l-2-3.6l-1.3,1.7v1.9h-0.7v-6.7
		h0.7v2.9v0.9c0-0.1,0.1-0.2,0.2-0.3s0.2-0.2,0.3-0.4c0.1-0.1,0.2-0.3,0.3-0.4c0.1-0.1,0.2-0.2,0.2-0.3l1.9-2.5h0.8l-2,2.5l2.3,4.2
		L79.7,36.1L79.7,36.1z M81.8,36.1v-6.7h4.1v0.7h-3.3v2.1h1.9v0.7h-1.9v2.6H86v0.7L81.8,36.1L81.8,36.1z M89.8,30.1v6H89v-6h-2v-0.7
		h4.7v0.7C91.7,30.1,89.8,30.1,89.8,30.1z"/>
	<path class="st0" d="M58.1,28l-0.3-0.8h-1.4L56.1,28h-0.8l1.4-3.7h0.7l1.4,3.7H58.1z M57.3,25.8c0-0.1-0.1-0.2-0.1-0.3
		c0-0.1-0.1-0.2-0.1-0.3c0,0.1,0,0.2-0.1,0.3c0,0.1-0.1,0.2-0.1,0.3l-0.2,0.7h0.8L57.3,25.8z M62.4,26.3c0,0.5-0.1,1-0.4,1.3
		c-0.3,0.3-0.6,0.4-1.1,0.4c-0.2,0-0.4,0-0.6-0.1c-0.2-0.1-0.3-0.2-0.5-0.3c-0.1-0.1-0.2-0.3-0.3-0.5s-0.1-0.4-0.1-0.7v-2.1h0.7v2.1
		c0,0.3,0.1,0.5,0.2,0.7c0.1,0.2,0.3,0.3,0.6,0.3c0.2,0,0.4-0.1,0.6-0.3c0.1-0.2,0.2-0.4,0.2-0.7v-2.1h0.7
		C62.4,24.3,62.4,26.3,62.4,26.3z M66.3,26.1c0,0.3-0.1,0.6-0.2,0.8c-0.1,0.2-0.2,0.4-0.4,0.6c-0.2,0.1-0.4,0.3-0.6,0.3
		c-0.2,0.1-0.5,0.1-0.7,0.1h-1.1v-3.7h1.2c0.3,0,0.5,0,0.7,0.1s0.4,0.2,0.6,0.3c0.2,0.1,0.3,0.3,0.4,0.6S66.3,25.8,66.3,26.1
		 M65.5,26.1c0-0.4-0.1-0.7-0.3-0.8C65,25.1,64.7,25,64.4,25H64v2.3h0.4c0.2,0,0.4,0,0.5-0.1s0.3-0.1,0.4-0.2s0.2-0.2,0.2-0.4
		C65.5,26.4,65.5,26.3,65.5,26.1 M67.1,24.3h0.7V28h-0.7V24.3z M71.9,26.1c0,0.3,0,0.5-0.1,0.8c-0.1,0.2-0.2,0.4-0.3,0.6
		c-0.1,0.2-0.3,0.3-0.5,0.4C70.7,28,70.5,28,70.3,28c-0.3,0-0.5,0-0.7-0.1s-0.4-0.2-0.5-0.4c-0.1-0.2-0.2-0.4-0.3-0.6
		c-0.1-0.2-0.1-0.5-0.1-0.8s0-0.5,0.1-0.8c0.1-0.2,0.2-0.4,0.3-0.6c0.1-0.2,0.3-0.3,0.5-0.4s0.4-0.1,0.7-0.1c0.3,0,0.5,0,0.7,0.1
		s0.4,0.2,0.5,0.4c0.1,0.2,0.2,0.4,0.3,0.6C71.8,25.6,71.9,25.8,71.9,26.1 M71.1,26.1c0-0.2,0-0.3,0-0.5c0-0.1-0.1-0.3-0.2-0.4
		S70.7,25,70.6,25c-0.1-0.1-0.2-0.1-0.4-0.1c-0.1,0-0.3,0-0.4,0.1s-0.2,0.1-0.3,0.2c-0.1,0.1-0.1,0.2-0.2,0.4c0,0.1,0,0.3,0,0.5
		s0,0.3,0,0.5c0,0.1,0.1,0.3,0.2,0.4s0.2,0.2,0.3,0.2c0.1,0.1,0.2,0.1,0.4,0.1c0.1,0,0.3,0,0.4-0.1s0.2-0.1,0.3-0.2
		c0.1-0.1,0.1-0.2,0.2-0.4C71.1,26.4,71.1,26.3,71.1,26.1 M74.2,28h-0.7l-1.3-3.7H73l0.7,2.1c0,0.1,0,0.1,0.1,0.2
		c0,0.1,0,0.1,0.1,0.2c0,0.1,0,0.1,0,0.2v0.1c0-0.1,0-0.2,0.1-0.3c0-0.1,0.1-0.2,0.1-0.3l0.7-2.1h0.8L74.2,28z M76.2,24.3H77V28
		h-0.7v-3.7H76.2z M80.7,26.8c0,0.2,0,0.3-0.1,0.5c-0.1,0.1-0.1,0.3-0.3,0.4c-0.1,0.1-0.3,0.2-0.5,0.2C79.7,28,79.5,28,79.2,28
		s-0.6-0.1-0.8-0.2c-0.3-0.1-0.5-0.3-0.6-0.5l0.5-0.5c0.1,0.2,0.3,0.3,0.4,0.3c0.2,0.1,0.3,0.1,0.5,0.1s0.4,0,0.5-0.1
		s0.2-0.2,0.2-0.3c0-0.1,0-0.1,0-0.2l-0.1-0.1c-0.1,0-0.1-0.1-0.3-0.1c-0.1,0-0.3-0.1-0.4-0.1c-0.2,0-0.3-0.1-0.5-0.1
		c-0.1-0.1-0.3-0.1-0.4-0.2S78,25.8,78,25.7c-0.1-0.1-0.1-0.3-0.1-0.5s0-0.3,0.1-0.5c0.1-0.1,0.2-0.2,0.3-0.3
		c0.1-0.1,0.3-0.2,0.4-0.2c0.2-0.1,0.3-0.1,0.5-0.1c0.3,0,0.5,0,0.8,0.2c0.2,0.1,0.4,0.2,0.6,0.4l-0.5,0.5c-0.1-0.1-0.2-0.2-0.4-0.3
		c-0.1-0.1-0.3-0.1-0.5-0.1c-0.1,0-0.2,0-0.2,0c-0.1,0-0.1,0-0.2,0.1L78.7,25v0.1c0,0.1,0,0.1,0,0.2l0.1,0.1c0.1,0,0.1,0.1,0.2,0.1
		s0.2,0.1,0.4,0.1c0.1,0,0.3,0.1,0.4,0.1s0.3,0.1,0.4,0.2s0.2,0.2,0.3,0.3C80.6,26.5,80.7,26.6,80.7,26.8 M84.4,26.3
		c0,0.5-0.1,1-0.4,1.3S83.4,28,82.9,28c-0.2,0-0.4,0-0.6-0.1s-0.3-0.2-0.5-0.3c-0.1-0.1-0.2-0.3-0.3-0.5c-0.1-0.2-0.1-0.4-0.1-0.7
		v-2.1h0.7v2.1c0,0.3,0.1,0.5,0.2,0.7s0.3,0.3,0.6,0.3c0.2,0,0.4-0.1,0.6-0.3c0.1-0.2,0.2-0.4,0.2-0.7v-2.1h0.7L84.4,26.3L84.4,26.3
		z M87.6,28l-0.3-0.8H86L85.7,28h-0.8l1.4-3.7H87l1.4,3.7H87.6z M86.9,25.8c0-0.1-0.1-0.2-0.1-0.3c0-0.1-0.1-0.2-0.1-0.3
		c0,0.1,0,0.2-0.1,0.3c0,0.1-0.1,0.2-0.1,0.3l-0.2,0.7h0.8L86.9,25.8z M89.1,28v-3.7h0.7v3h1.9V28H89.1z"/>
	<path class="st1" d="M25.2,0.3C38.9,0.3,50,11.4,50,25c0,5.9-2.1,11.3-5.5,15.5V22h-3.9l-14.2-5.4c-0.1,0.6-0.3,1.1-0.6,1.7
		c-0.5,0.9-1.2,1.6-2,2.1c0.9,0.4,1.6,0.9,2.3,1.7h3.7l4.2,9.1c0.1,0.3,0.3,0.6,0.4,0.9c0.1,0.3,0.3,0.6,0.4,0.9
		c0.1,0.3,0.2,0.6,0.3,0.9c0.1,0.3,0.2,0.5,0.2,0.7c0.1-0.4,0.3-0.9,0.6-1.5c0.2-0.6,0.5-1.2,0.8-1.8l4-9.1v-3.3l-3.4-1.2V12
		l3.4-1.2V7.5L26.3,13c-0.4-1.2-1-2.1-1.9-2.9c-1.5-1.2-3.5-1.8-6.1-1.8H7C11.5,3.4,18,0.3,25.2,0.3 M25.7,31.4
		c-0.3,0.4-0.6,0.7-0.9,1c-0.8,0.7-1.8,1.3-3,1.6c-1.2,0.4-2.4,0.5-3.8,0.5H6v-25C2.6,13.7,0.5,19.1,0.5,25
		c0,13.6,11.1,24.7,24.7,24.7c7,0,13.4-2.9,17.9-7.7h-2.7v-7.4c0-0.3,0-0.6,0-1s0-0.8,0-1.3s0-0.8,0-1.2c0-0.4,0-0.7,0-0.9
		c-0.2,0.4-0.4,0.9-0.6,1.5c-0.3,0.6-0.5,1.2-0.8,1.8l-4,9l-4-8.9c-0.3-0.6-0.5-1.2-0.8-1.8c-0.3-0.6-0.5-1.1-0.6-1.5
		c0,0.2,0,0.5,0,0.9s0,0.8,0,1.2c0,0.4,0,0.9,0,1.3c0,0.4,0,0.8,0,1v7.4h-3.9V31.4z M21.1,15.7c0-0.8-0.3-1.5-0.8-1.9
		s-1.3-0.6-2.5-0.6h-6.7v5h7c1.1,0,1.9-0.2,2.3-0.7C20.9,17,21.1,16.4,21.1,15.7 M21.9,26.2c0-2.3-1.3-3.4-3.8-3.4h-7v6.8h7
		c1.3,0,2.2-0.3,2.8-0.9C21.6,28.1,21.9,27.3,21.9,26.2 M31.5,14c-0.4,0.2-0.9,0.3-1.3,0.4c-0.4,0.1-0.8,0.2-1.1,0.3
		c0.3,0.1,0.6,0.2,1.1,0.3c0.4,0.1,0.9,0.3,1.3,0.4l2.8,1v-3.5L31.5,14z"/>
</g>
</svg>
