<?xml version="1.0" encoding="utf-8"?>
<!-- Generator: Adobe Illustrator 24.3.2, SVG Export Plug-In . SVG Version: 6.00 Build 0)  -->
<svg version="1.1" id="Layer_1" xmlns="http://www.w3.org/2000/svg" xmlns:xlink="http://www.w3.org/1999/xlink" x="0px" y="0px"
	 viewBox="0 0 112.8 61.2" style="enable-background:new 0 0 112.8 61.2;" xml:space="preserve">
<style type="text/css">
	.st0{fill:#FFFFFF;}
	.st1{fill-rule:evenodd;clip-rule:evenodd;fill:#FFFFFF;}
</style>
<g>
	<path class="st0" d="M74.3,24.7c0,1-0.3,1.8-0.9,2.3c-0.6,0.5-1.4,0.8-2.5,0.8h-3.6V17.5h3.7c0.4,0,0.8,0,1.1,0.2
		c0.3,0.1,0.6,0.3,0.9,0.5c0.2,0.2,0.4,0.5,0.6,0.8c0.1,0.3,0.2,0.7,0.2,1.1c0,0.6-0.1,1-0.4,1.3c-0.3,0.3-0.6,0.6-1.1,0.7
		c0.2,0.1,0.5,0.1,0.7,0.3c0.2,0.1,0.4,0.3,0.6,0.5c0.2,0.2,0.3,0.4,0.4,0.7C74.3,24,74.3,24.3,74.3,24.7 M72.7,20.1
		c0-0.5-0.1-0.8-0.4-1.1c-0.3-0.3-0.7-0.4-1.3-0.4h-2.5v3.2H71c0.6,0,1.1-0.2,1.4-0.5C72.6,21,72.7,20.6,72.7,20.1 M73.2,24.8
		c0-0.6-0.2-1.1-0.6-1.5c-0.4-0.3-0.9-0.5-1.6-0.5h-2.5v3.9h2.6c0.8,0,1.3-0.2,1.6-0.5C73,25.8,73.2,25.3,73.2,24.8 M82.5,23.9
		c0,0.7-0.1,1.2-0.3,1.7c-0.2,0.5-0.4,0.9-0.7,1.3c-0.3,0.3-0.7,0.6-1.1,0.8c-0.4,0.2-0.8,0.3-1.3,0.3c-0.5,0-0.9-0.1-1.3-0.3
		c-0.4-0.2-0.7-0.4-1-0.8c-0.3-0.3-0.5-0.7-0.7-1.2c-0.2-0.5-0.3-1.1-0.3-1.7c0-0.7,0.1-1.2,0.3-1.7c0.2-0.5,0.4-0.9,0.7-1.2
		c0.3-0.3,0.7-0.6,1.1-0.8c0.4-0.2,0.8-0.3,1.3-0.3c0.5,0,0.9,0.1,1.3,0.2c0.4,0.2,0.7,0.4,1,0.7c0.3,0.3,0.5,0.7,0.7,1.2
		C82.4,22.6,82.5,23.2,82.5,23.9 M81.4,23.9c0-1-0.2-1.8-0.6-2.3c-0.4-0.5-0.9-0.8-1.6-0.8c-0.7,0-1.2,0.3-1.6,0.8
		c-0.4,0.5-0.6,1.3-0.6,2.3c0,1,0.2,1.8,0.6,2.3c0.4,0.5,0.9,0.8,1.6,0.8c0.7,0,1.2-0.3,1.6-0.8C81.2,25.6,81.4,24.9,81.4,23.9
		 M90.2,27c0,0.6-0.1,1.1-0.2,1.5c-0.1,0.4-0.4,0.8-0.7,1.1c-0.3,0.3-0.7,0.5-1.2,0.7c-0.5,0.2-1.1,0.2-1.8,0.3l-0.4-0.8
		c0.6,0,1.2-0.1,1.6-0.2c0.4-0.1,0.7-0.2,0.9-0.4c0.2-0.2,0.4-0.5,0.5-0.8c0.1-0.3,0.1-0.7,0.1-1.1v-0.4c-0.3,0.3-0.6,0.5-1,0.8
		c-0.4,0.2-0.8,0.3-1.3,0.3c-0.4,0-0.7-0.1-1.1-0.2c-0.3-0.1-0.6-0.4-0.9-0.7c-0.2-0.3-0.4-0.7-0.6-1.2C84.1,25.3,84,24.7,84,24
		c0-0.7,0.1-1.3,0.2-1.8c0.2-0.5,0.4-0.9,0.6-1.3c0.3-0.3,0.6-0.6,0.9-0.8c0.4-0.2,0.7-0.3,1.1-0.3c0.5,0,0.9,0.1,1.2,0.3
		c0.3,0.2,0.6,0.4,0.9,0.7v-0.9h1.1V27z M89.1,22c-0.2-0.3-0.5-0.6-0.9-0.8c-0.4-0.2-0.8-0.3-1.2-0.3c-0.6,0-1.1,0.3-1.4,0.8
		c-0.3,0.5-0.5,1.3-0.5,2.3c0,1,0.2,1.7,0.5,2.2c0.3,0.5,0.8,0.7,1.4,0.7c0.4,0,0.8-0.1,1.1-0.3c0.3-0.2,0.6-0.5,0.9-0.8V22z
		 M98.8,23.9c0,0.7-0.1,1.2-0.3,1.7c-0.2,0.5-0.4,0.9-0.7,1.3c-0.3,0.3-0.7,0.6-1.1,0.8c-0.4,0.2-0.8,0.3-1.3,0.3
		c-0.5,0-0.9-0.1-1.3-0.3c-0.4-0.2-0.8-0.4-1-0.8c-0.3-0.3-0.5-0.7-0.7-1.2c-0.2-0.5-0.3-1.1-0.3-1.7c0-0.7,0.1-1.2,0.3-1.7
		c0.2-0.5,0.4-0.9,0.7-1.2c0.3-0.3,0.7-0.6,1.1-0.8c0.4-0.2,0.8-0.3,1.3-0.3c0.5,0,0.9,0.1,1.3,0.2c0.4,0.2,0.7,0.4,1,0.7
		c0.3,0.3,0.5,0.7,0.7,1.2C98.7,22.6,98.8,23.2,98.8,23.9 M97.7,23.9c0-1-0.2-1.8-0.6-2.3c-0.4-0.5-0.9-0.8-1.6-0.8
		c-0.7,0-1.2,0.3-1.6,0.8c-0.4,0.5-0.6,1.3-0.6,2.3c0,1,0.2,1.8,0.6,2.3c0.4,0.5,0.9,0.8,1.6,0.8c0.7,0,1.2-0.3,1.6-0.8
		C97.5,25.6,97.7,24.9,97.7,23.9 M102.1,21v5c0,0.3,0.1,0.6,0.2,0.7c0.1,0.1,0.3,0.2,0.6,0.2c0.2,0,0.4,0,0.6,0
		c0.2,0,0.3-0.1,0.5-0.2l-0.1,0.9c-0.2,0.1-0.4,0.2-0.6,0.2c-0.2,0-0.5,0.1-0.8,0.1c-0.5,0-0.8-0.1-1.1-0.4
		c-0.2-0.3-0.4-0.7-0.4-1.3V21h-0.9v-0.9h0.9V17l1.1-0.6v3.7h1.9V21H102.1z M110.5,27.7v-0.9c-0.3,0.3-0.6,0.5-1,0.8
		c-0.4,0.2-0.9,0.3-1.4,0.3c-0.3,0-0.6,0-0.9-0.1c-0.3-0.1-0.6-0.2-0.8-0.4c-0.2-0.2-0.4-0.4-0.6-0.7c-0.1-0.3-0.2-0.7-0.2-1.2
		c0-0.4,0.1-0.8,0.2-1.1c0.2-0.3,0.4-0.6,0.6-0.8c0.3-0.2,0.6-0.3,0.9-0.4c0.4-0.1,0.7-0.1,1.1-0.1c0.4,0,0.7,0,1.1,0.1
		c0.3,0.1,0.6,0.2,0.8,0.3v-0.9c0-1.1-0.6-1.7-1.7-1.7c-0.4,0-0.8,0-1.1,0.2c-0.3,0.1-0.7,0.2-1,0.4l-0.4-0.9
		c0.3-0.2,0.7-0.3,1.2-0.4c0.4-0.1,0.9-0.2,1.4-0.2c0.8,0,1.5,0.2,2,0.6c0.5,0.4,0.7,1,0.7,1.9v5.3H110.5z M110.5,24.3
		c-0.3-0.1-0.5-0.2-0.8-0.3c-0.3-0.1-0.7-0.1-1.1-0.1c-0.6,0-1,0.1-1.3,0.4c-0.3,0.3-0.5,0.6-0.5,1.1c0,0.6,0.1,1,0.4,1.2
		c0.3,0.3,0.7,0.4,1.1,0.4c0.5,0,0.9-0.1,1.3-0.3c0.4-0.2,0.7-0.5,0.9-0.8V24.3z M109.1,19.1h-0.9l1.5-2.3h1.6L109.1,19.1z"/>
	<path class="st0" d="M73.6,44.1v-5.5v-0.9c0,0.1-0.1,0.2-0.1,0.3c0,0.1-0.1,0.2-0.1,0.3c0,0.1-0.1,0.2-0.1,0.4
		c0,0.1-0.1,0.2-0.1,0.4L71,44.3L68.8,39c0-0.1-0.1-0.2-0.1-0.3c0-0.1-0.1-0.2-0.1-0.4c0-0.1-0.1-0.2-0.1-0.3c0-0.1-0.1-0.2-0.1-0.3
		v0.9v5.5h-0.9v-8.1h1l1.9,4.9c0,0.1,0.1,0.3,0.2,0.4c0.1,0.1,0.1,0.3,0.2,0.4c0.1,0.1,0.1,0.3,0.1,0.4c0,0.1,0.1,0.2,0.1,0.3
		c0-0.1,0.1-0.2,0.1-0.3c0-0.1,0.1-0.3,0.2-0.4c0.1-0.1,0.1-0.3,0.2-0.4c0.1-0.1,0.1-0.3,0.2-0.4l1.9-4.9h1v8.1H73.6z M81.9,44.1
		L81.2,42h-3.4l-0.7,2.1h-0.9l2.8-8.1h1l2.8,8.1H81.9z M80,38.5c0-0.1-0.1-0.3-0.1-0.4c-0.1-0.2-0.1-0.3-0.1-0.4
		c0-0.1-0.1-0.3-0.1-0.4c0-0.1-0.1-0.2-0.1-0.3c0,0.1-0.1,0.2-0.1,0.3c0,0.1-0.1,0.3-0.1,0.4c0,0.1-0.1,0.3-0.2,0.5
		c-0.1,0.2-0.1,0.3-0.2,0.4l-0.9,2.7h2.8L80,38.5z M90.3,38.2c0,0.6-0.2,1.1-0.5,1.5c-0.3,0.4-0.8,0.6-1.4,0.8l1.8,3.5h-1l-1.7-3.5
		h-1.9v3.5h-0.9v-8.1h3.2c0.4,0,0.7,0,1,0.1c0.3,0.1,0.6,0.2,0.8,0.4c0.2,0.2,0.4,0.4,0.5,0.7C90.2,37.5,90.3,37.8,90.3,38.2
		 M89.4,38.2c0-0.5-0.1-0.9-0.4-1.1c-0.3-0.2-0.7-0.4-1.2-0.4h-2.3v3h2.2c0.6,0,1.1-0.1,1.3-0.4C89.3,39.1,89.4,38.8,89.4,38.2
		 M97,44.1l-2.4-4.3l-1.5,2v2.3h-0.9v-8.1H93v3.5v1.1c0.1-0.1,0.1-0.2,0.2-0.3c0.1-0.1,0.2-0.3,0.3-0.4c0.1-0.2,0.2-0.3,0.3-0.5
		c0.1-0.1,0.2-0.3,0.3-0.4l2.4-3h1L95.2,39l2.8,5.1H97z M99.6,44.1v-8.1h4.9v0.8h-4v2.6h2.3v0.8h-2.3v3.1h4.2v0.8H99.6z M109.2,36.7
		v7.3h-0.9v-7.3h-2.4v-0.8h5.7v0.8H109.2z"/>
	<path class="st0" d="M70.8,34.2l-0.4-1h-1.6l-0.4,1h-1l1.7-4.5h0.9l1.7,4.5H70.8z M69.9,31.5c0-0.1-0.1-0.3-0.1-0.4
		c0-0.1-0.1-0.2-0.1-0.3c0,0.1-0.1,0.2-0.1,0.3c0,0.1-0.1,0.3-0.1,0.4l-0.3,0.8h1L69.9,31.5z M76,32.2c0,0.7-0.2,1.2-0.5,1.5
		c-0.3,0.4-0.8,0.5-1.3,0.5c-0.3,0-0.5,0-0.7-0.1c-0.2-0.1-0.4-0.2-0.6-0.4c-0.2-0.2-0.3-0.4-0.4-0.6c-0.1-0.3-0.1-0.5-0.1-0.9v-2.5
		h0.9v2.5c0,0.4,0.1,0.7,0.2,0.9c0.2,0.2,0.4,0.3,0.7,0.3c0.3,0,0.5-0.1,0.7-0.3c0.2-0.2,0.2-0.5,0.2-0.9v-2.5H76V32.2z M80.8,31.9
		c0,0.4-0.1,0.7-0.2,1c-0.1,0.3-0.3,0.5-0.5,0.7c-0.2,0.2-0.5,0.3-0.7,0.4c-0.3,0.1-0.6,0.1-0.8,0.1h-1.3v-4.5h1.4
		c0.3,0,0.6,0,0.9,0.1c0.3,0.1,0.5,0.2,0.7,0.4c0.2,0.2,0.4,0.4,0.5,0.7C80.7,31.2,80.8,31.5,80.8,31.9 M79.8,31.9
		c0-0.5-0.1-0.8-0.3-1c-0.2-0.2-0.6-0.3-1-0.3H78v2.7h0.4c0.2,0,0.4,0,0.6-0.1c0.2-0.1,0.3-0.2,0.4-0.3c0.1-0.1,0.2-0.3,0.2-0.4
		C79.8,32.3,79.8,32.1,79.8,31.9 M81.7,29.7h0.9v4.5h-0.9V29.7z M87.5,31.9c0,0.3,0,0.7-0.1,0.9c-0.1,0.3-0.2,0.5-0.4,0.7
		c-0.2,0.2-0.4,0.4-0.6,0.5c-0.2,0.1-0.5,0.2-0.8,0.2c-0.3,0-0.6-0.1-0.8-0.2c-0.2-0.1-0.5-0.3-0.6-0.5c-0.2-0.2-0.3-0.4-0.4-0.7
		c-0.1-0.3-0.1-0.6-0.1-0.9c0-0.3,0-0.7,0.1-0.9c0.1-0.3,0.2-0.5,0.4-0.7c0.2-0.2,0.4-0.4,0.6-0.5c0.2-0.1,0.5-0.2,0.8-0.2
		c0.3,0,0.6,0.1,0.8,0.2c0.2,0.1,0.4,0.3,0.6,0.5c0.2,0.2,0.3,0.4,0.4,0.7C87.5,31.3,87.5,31.6,87.5,31.9 M86.6,31.9
		c0-0.2,0-0.4-0.1-0.6c0-0.2-0.1-0.3-0.2-0.5c-0.1-0.1-0.2-0.2-0.3-0.3c-0.1-0.1-0.3-0.1-0.5-0.1c-0.2,0-0.3,0-0.5,0.1
		c-0.1,0.1-0.2,0.2-0.3,0.3c-0.1,0.1-0.1,0.3-0.2,0.5c0,0.2-0.1,0.4-0.1,0.6c0,0.2,0,0.4,0.1,0.6c0,0.2,0.1,0.3,0.2,0.5
		c0.1,0.1,0.2,0.2,0.3,0.3c0.1,0.1,0.3,0.1,0.5,0.1c0.2,0,0.3,0,0.5-0.1c0.1-0.1,0.2-0.2,0.3-0.3c0.1-0.1,0.1-0.3,0.2-0.5
		C86.6,32.3,86.6,32.1,86.6,31.9 M90.3,34.2h-0.9l-1.6-4.5h1l0.9,2.6c0,0.1,0,0.1,0.1,0.2c0,0.1,0,0.1,0.1,0.2c0,0.1,0,0.1,0,0.2
		c0,0.1,0,0.1,0,0.1c0-0.1,0.1-0.2,0.1-0.3c0-0.1,0.1-0.3,0.1-0.4l0.8-2.6h1L90.3,34.2z M92.8,29.7h0.9v4.5h-0.9V29.7z M98.2,32.8
		c0,0.2,0,0.4-0.1,0.6c-0.1,0.2-0.2,0.3-0.3,0.5c-0.1,0.1-0.3,0.2-0.6,0.3c-0.2,0.1-0.5,0.1-0.8,0.1c-0.4,0-0.7-0.1-1-0.2
		c-0.3-0.1-0.5-0.3-0.7-0.6l0.6-0.6c0.2,0.2,0.3,0.3,0.5,0.4c0.2,0.1,0.4,0.1,0.6,0.1c0.3,0,0.5,0,0.6-0.1c0.1-0.1,0.2-0.2,0.2-0.4
		c0-0.1,0-0.1,0-0.2c0-0.1-0.1-0.1-0.1-0.2c-0.1,0-0.2-0.1-0.3-0.1c-0.1,0-0.3-0.1-0.5-0.1c-0.2,0-0.4-0.1-0.6-0.2
		c-0.2-0.1-0.3-0.1-0.4-0.2c-0.1-0.1-0.2-0.2-0.3-0.4c-0.1-0.2-0.1-0.3-0.1-0.6c0-0.2,0-0.4,0.1-0.6c0.1-0.2,0.2-0.3,0.3-0.4
		c0.1-0.1,0.3-0.2,0.5-0.3c0.2-0.1,0.4-0.1,0.6-0.1c0.4,0,0.7,0.1,0.9,0.2c0.3,0.1,0.5,0.3,0.7,0.5L97.4,31
		c-0.1-0.2-0.3-0.3-0.5-0.3c-0.2-0.1-0.4-0.1-0.6-0.1c-0.1,0-0.2,0-0.3,0c-0.1,0-0.1,0.1-0.2,0.1c-0.1,0-0.1,0.1-0.1,0.1
		c0,0,0,0.1,0,0.1c0,0.1,0,0.1,0,0.2c0,0,0.1,0.1,0.1,0.1c0.1,0,0.2,0.1,0.3,0.1c0.1,0,0.3,0.1,0.4,0.1c0.2,0,0.4,0.1,0.5,0.2
		c0.2,0.1,0.3,0.1,0.5,0.2c0.1,0.1,0.3,0.2,0.3,0.4C98.1,32.4,98.2,32.6,98.2,32.8 M102.7,32.2c0,0.7-0.2,1.2-0.5,1.5
		c-0.3,0.4-0.8,0.5-1.3,0.5c-0.3,0-0.5,0-0.7-0.1c-0.2-0.1-0.4-0.2-0.6-0.4c-0.2-0.2-0.3-0.4-0.4-0.6c-0.1-0.3-0.1-0.5-0.1-0.9v-2.5
		h0.9v2.5c0,0.4,0.1,0.7,0.2,0.9c0.2,0.2,0.4,0.3,0.7,0.3c0.3,0,0.5-0.1,0.7-0.3c0.2-0.2,0.2-0.5,0.2-0.9v-2.5h0.9V32.2z
		 M106.6,34.2l-0.4-1h-1.6l-0.3,1h-1l1.7-4.5h0.9l1.7,4.5H106.6z M105.7,31.5c0-0.1-0.1-0.3-0.1-0.4c0-0.1-0.1-0.2-0.1-0.3
		c0,0.1-0.1,0.2-0.1,0.3c0,0.1-0.1,0.3-0.1,0.4l-0.3,0.8h1L105.7,31.5z M108.5,34.2v-4.5h0.9v3.6h2.3v0.9H108.5z"/>
	<path class="st1" d="M31,0.6c16.5,0,30,13.4,30,30c0,7.1-2.5,13.7-6.7,18.8V27h-4.8l-17.2-6.6c-0.1,0.7-0.4,1.4-0.7,2
		c-0.6,1.1-1.4,1.9-2.5,2.6c1.1,0.5,2,1.1,2.7,2h4.4l5.1,11c0.2,0.3,0.3,0.7,0.5,1.1c0.2,0.4,0.3,0.8,0.5,1.1c0.2,0.4,0.3,0.7,0.4,1
		c0.1,0.3,0.2,0.6,0.3,0.8c0.2-0.5,0.4-1.1,0.7-1.9c0.3-0.8,0.6-1.5,0.9-2.2l4.9-11v-4l-4.1-1.4v-6.7l4.1-1.5V9.4L32.1,16
		c-0.4-1.4-1.2-2.6-2.3-3.5c-1.8-1.4-4.3-2.2-7.4-2.2H8.9C14.4,4.4,22.3,0.6,31,0.6 M31.6,38.4c-0.3,0.5-0.7,0.9-1.1,1.2
		c-1,0.9-2.2,1.5-3.6,2c-1.4,0.4-2.9,0.7-4.6,0.7H7.7V11.8C3.5,16.9,1,23.5,1,30.6c0,16.5,13.4,30,30,30c8.5,0,16.2-3.6,21.7-9.3
		h-3.2v-8.9c0-0.3,0-0.7,0-1.2c0-0.5,0-1,0-1.6c0-0.5,0-1,0-1.5c0-0.5,0-0.8,0-1c-0.2,0.5-0.4,1.1-0.7,1.8c-0.3,0.8-0.6,1.5-1,2.2
		l-4.9,10.8L38,41.1c-0.3-0.7-0.6-1.4-1-2.2c-0.3-0.8-0.6-1.4-0.7-1.8c0,0.2,0,0.6,0,1c0,0.5,0,1,0,1.5c0,0.5,0,1.1,0,1.6
		c0,0.5,0,0.9,0,1.2v8.9h-4.7V38.4z M26,19.3c0-1-0.3-1.8-0.9-2.3c-0.6-0.5-1.6-0.8-3-0.8H14v6.1h8.4c1.3,0,2.3-0.3,2.8-0.8
		C25.7,20.9,26,20.2,26,19.3 M27,32.1c0-2.7-1.5-4.1-4.6-4.1H14v8.2h8.5c1.5,0,2.7-0.4,3.4-1.1C26.6,34.3,27,33.3,27,32.1
		 M38.5,17.3c-0.5,0.2-1.1,0.4-1.6,0.5c-0.5,0.2-0.9,0.3-1.3,0.4c0.4,0.1,0.8,0.2,1.3,0.4c0.5,0.2,1,0.3,1.6,0.5l3.3,1.2v-4.2
		L38.5,17.3z"/>
</g>
</svg>
