<?xml version="1.0" encoding="utf-8"?>
<!-- Generator: Adobe Illustrator 24.3.2, SVG Export Plug-In . SVG Version: 6.00 Build 0)  -->
<svg version="1.1" id="Layer_1" xmlns="http://www.w3.org/2000/svg" xmlns:xlink="http://www.w3.org/1999/xlink" x="0px" y="0px"
	 viewBox="0 0 131.2 15" style="enable-background:new 0 0 131.2 15;" xml:space="preserve">
<g>
	<path d="M8,0.2c-4,0-7.2,3.2-7.2,7.2c0,1.4,0.4,2.6,1,3.7l-1,3.5l3.6-0.9c1.1,0.6,2.3,0.9,3.6,0.9c4,0,7.2-3.2,7.2-7.2
		S12.1,0.2,8,0.2z M5.6,4.1c0.1,0,0.2,0,0.3,0c0.1,0,0.3,0,0.4,0.3c0.2,0.4,0.5,1.2,0.6,1.3c0,0.1,0.1,0.2,0,0.3
		C6.8,6.2,6.8,6.3,6.7,6.4C6.6,6.5,6.5,6.6,6.4,6.7c-0.1,0.1-0.1,0.2,0,0.4s0.5,0.8,1,1.2C8,8.9,8.6,9.1,8.8,9.2
		c0.2,0.1,0.3,0.1,0.4,0C9.3,9,9.6,8.6,9.8,8.4c0.1-0.2,0.2-0.1,0.4-0.1c0.2,0.1,1,0.5,1.2,0.6s0.3,0.1,0.3,0.2c0,0.1,0,0.4-0.1,0.9
		c-0.1,0.4-0.9,0.8-1.2,0.9c-0.3,0-0.6,0.1-2.2-0.4c-1.8-0.7-3-2.6-3.1-2.7s-0.7-1-0.7-1.9S4.9,4.6,5,4.4C5.3,4.2,5.4,4.1,5.6,4.1z"
		/>
	<path d="M36.9,0.3c-4,0-7.2,3.2-7.2,7.2s3.2,7.2,7.2,7.2s7.2-3.2,7.2-7.2C44.1,3.5,40.9,0.3,36.9,0.3z M38.8,7.5h-1.3
		c0,2,0,4.5,0,4.5h-1.9c0,0,0-2.4,0-4.5h-0.9V5.9h0.9v-1C35.7,4.1,36,3,37.6,3H39v1.5c0,0-0.8,0-1,0s-0.4,0.1-0.4,0.4v0.9H39
		L38.8,7.5z"/>
	<path d="M65.7,0.2c-4,0-7.3,3.2-7.3,7.3c0,4,3.2,7.2,7.3,7.2c4,0,7.2-3.2,7.2-7.2C73,3.4,69.7,0.2,65.7,0.2z M69.4,6
		c0,0.1,0,0.2,0,0.2c0,2.4-1.8,5.2-5.2,5.2c-1,0-2-0.3-2.8-0.8c0.1,0,0.3,0,0.4,0c0.9,0,1.6-0.3,2.3-0.8c-0.8,0-1.5-0.5-1.7-1.3
		c0.1,0,0.2,0,0.3,0c0.2,0,0.3,0,0.5-0.1c-0.8-0.2-1.5-0.9-1.5-1.8l0,0C62,6.9,62.3,7,62.6,7c-0.5-0.3-0.8-0.9-0.8-1.5
		c0-0.3,0.1-0.6,0.2-0.9c0.9,1.1,2.2,1.8,3.8,1.9c0-0.1,0-0.3,0-0.4c0-1,0.8-1.8,1.8-1.8c0.5,0,1,0.2,1.3,0.6
		c0.4-0.1,0.8-0.2,1.2-0.4c-0.1,0.4-0.4,0.8-0.8,1c0.4,0,0.7-0.1,1-0.3C70,5.4,69.7,5.7,69.4,6z"/>
	<path d="M123.4,0.3c-4,0-7.3,3.2-7.3,7.3s3.2,7.2,7.3,7.2c4,0,7.2-3.2,7.2-7.2S127.4,0.3,123.4,0.3z M126.7,7.9l-4.6,2.9
		c-0.1,0.1-0.2,0.1-0.3,0.1c-0.1,0-0.2,0-0.3-0.1c-0.2-0.1-0.3-0.3-0.3-0.5V4.6c0-0.2,0.1-0.4,0.3-0.5c0.2-0.1,0.4-0.1,0.5,0
		l4.6,2.9c0.2,0.1,0.2,0.3,0.2,0.4C127,7.7,126.9,7.8,126.7,7.9z"/>
</g>
<g>
	<path d="M98.6,4.6c-0.1-0.2-0.2-0.4-0.4-0.6c-0.2-0.2-0.3-0.3-0.6-0.4c-0.2-0.1-0.4-0.1-0.9-0.2c-0.5,0-0.7,0-2,0s-1.5,0-2,0
		S92,3.5,91.8,3.6c-0.2,0.1-0.4,0.2-0.6,0.4C91,4.2,91.1,4.4,91,4.6S90.9,5,90.8,5.5c0,0.5,0,0.7,0,2s0,1.5,0,2s0.1,0.7,0.2,0.9
		s0.2,0.4,0.4,0.6s0.3,0.3,0.6,0.4c0.2,0.1,0.4,0.1,0.9,0.2l0,0c0.5,0,0.7,0,2,0s1.5,0,2,0s0.7-0.1,0.9-0.2c0.2-0.1,0.4-0.2,0.6-0.4
		s0.3-0.3,0.4-0.6c0.1-0.2,0.1-0.4,0.2-0.9c0-0.5,0-0.7,0-2s0-1.5,0-2C98.8,5,98.7,4.8,98.6,4.6z M94.8,10c-1.4,0-2.5-1.1-2.5-2.5
		l0,0c0-1.4,1.1-2.5,2.5-2.5s2.5,1.1,2.5,2.5S96.2,10,94.8,10z M97.4,5.5c-0.3,0-0.6-0.3-0.6-0.6c0-0.3,0.3-0.6,0.6-0.6l0,0
		c0.3,0,0.6,0.3,0.6,0.6S97.8,5.5,97.4,5.5z"/>
	<path d="M94.8,0.3c-4,0-7.2,3.2-7.2,7.2s3.2,7.2,7.2,7.2s7.2-3.2,7.2-7.2S98.8,0.3,94.8,0.3z M99.7,9.5c0,0.5-0.1,0.9-0.2,1.2
		s-0.3,0.6-0.6,0.9c-0.3,0.3-0.5,0.4-0.9,0.6c-0.3,0.1-0.7,0.2-1.2,0.2s-0.7,0-2,0s-1.5,0-2,0s-0.9-0.1-1.2-0.2
		c-0.3-0.1-0.6-0.3-0.9-0.6s-0.4-0.5-0.6-0.9c-0.1-0.3-0.2-0.7-0.2-1.2s0-0.7,0-2s0-1.5,0-2s0.1-0.9,0.2-1.2
		c0.1-0.3,0.3-0.6,0.6-0.9s0.5-0.4,0.9-0.6c0.3-0.1,0.7-0.2,1.2-0.2l0,0c0.5,0,0.7,0,2,0s1.5,0,2,0s0.9,0.1,1.2,0.2
		c0.3,0.1,0.6,0.3,0.9,0.6s0.4,0.5,0.6,0.9c0.1,0.3,0.2,0.7,0.2,1.2s0,0.7,0,2S99.7,9,99.7,9.5z"/>
	<path d="M94.8,5.9c-0.9,0-1.6,0.7-1.6,1.6s0.7,1.6,1.6,1.6s1.6-0.7,1.6-1.6S95.7,5.9,94.8,5.9z"/>
</g>
</svg>
